# xmcd CD database file
#
# Track frame offsets:
#	225
#	17900
#	38093
#	73846
#	94991
#	122817
#	145861
#
# Disc length: 2346 seconds
#
# Revision: 0
# Processed by: cddbd v1.5.2PL0 Copyright (c) Steve Scherf et al.
# Submitted via: CDex 1.70beta2
#
DISCID=63092707
DTITLE=Quintessential - Almost Live
DYEAR=1900
DGENRE=Jazz
TTITLE0=Anthropology
TTITLE1=All For Miles
TTITLE2=Spaced Bass
TTITLE3=Going Up
TTITLE4=G3 Hangover
TTITLE5=Amazing Grace
TTITLE6=Solar
EXTD=
EXTT0=
EXTT1=
EXTT2=
EXTT3=
EXTT4=
EXTT5=
EXTT6=
PLAYORDER=
